<svg width="120" height="120" viewBox="0 0 120 120" fill="none" xmlns="http://www.w3.org/2000/svg">
<circle cx="60" cy="60" r="60" fill="white"/>
<path d="M41.0747 54.3945C41.0747 55.8945 41.2505 56.8086 41.602 57.1367C41.9536 57.4648 42.8384 57.6289 44.2563 57.6289C47.8305 57.6289 50.6255 56.6504 52.6411 54.6934C54.6567 52.7246 55.6645 49.9941 55.6645 46.502C55.6645 42.9395 54.6333 40.2031 52.5708 38.293C50.52 36.3828 47.5786 35.4277 43.7466 35.4277C42.6216 35.4277 41.895 35.6035 41.5669 35.9551C41.2388 36.3066 41.0747 37.127 41.0747 38.416V54.3945ZM33.4458 59L33.4634 58.2441C34.9165 58.2207 35.8891 57.9863 36.3813 57.541C36.8735 57.084 37.1196 56.2051 37.1196 54.9043V38.1875C37.1196 36.9102 36.8677 36.043 36.3638 35.5859C35.8598 35.1289 34.8872 34.877 33.4458 34.8301V34.0918H45.2583C49.8989 34.0918 53.5024 35.1641 56.0688 37.3086C58.647 39.4531 59.936 42.4473 59.936 46.291C59.936 48.4238 59.5083 50.3398 58.6528 52.0391C57.8091 53.7383 56.5493 55.1973 54.8735 56.416C53.6079 57.3301 52.1723 57.9922 50.5669 58.4023C48.9731 58.8008 46.8579 59 44.2212 59H33.4458ZM73.564 59.5801L64.6695 39.3125C63.9077 37.5664 63.2163 36.3887 62.5952 35.7793C61.9859 35.1699 61.2417 34.8594 60.3628 34.8477V34.0918H70.9097L70.8921 34.8477C69.6734 34.9297 68.8706 35.0703 68.4839 35.2695C68.1089 35.4688 67.9214 35.8086 67.9214 36.2891C67.9214 36.7812 68.4487 38.2871 69.5034 40.8066C70.5698 43.3262 72.4507 47.5039 75.146 53.3398L81.7378 38.7324C81.9722 38.2051 82.148 37.748 82.2652 37.3613C82.3941 36.9746 82.4585 36.6641 82.4585 36.4297C82.4585 35.8906 82.2593 35.5098 81.8609 35.2871C81.4624 35.0527 80.7183 34.9062 79.6284 34.8477L79.6109 34.0918H87.1343V34.8477C86.4546 34.8945 85.8804 35.1582 85.4116 35.6387C84.9429 36.1191 84.3804 37.1035 83.7241 38.5918L74.355 59.5801H73.564ZM26.8605 76V75.7061H26.9288C27.4438 75.7061 27.7947 75.6058 27.9816 75.4053C28.1684 75.2048 28.2618 74.8151 28.2618 74.2363V67.9336C28.2618 67.3639 28.1684 67.0016 27.9816 66.8467C27.7993 66.6917 27.4279 66.612 26.8673 66.6074L26.8605 66.3135H31.2696V66.6074H31.2013C30.6863 66.6074 30.3286 66.7054 30.128 66.9014C29.9275 67.0928 29.8273 67.4368 29.8273 67.9336V74.4482C29.8273 74.8812 29.8888 75.1523 30.0118 75.2617C30.1349 75.3711 30.3969 75.4258 30.798 75.4258H32.4728C33.1928 75.4258 33.7853 75.2686 34.2501 74.9541C34.715 74.6351 35.0887 74.1338 35.3712 73.4502H35.6652L34.8722 76H26.8605ZM37.6222 71.1533C37.6222 72.5479 37.9229 73.653 38.5245 74.4688C39.1306 75.2845 39.9441 75.6924 40.9649 75.6924C41.9903 75.6924 42.8038 75.2845 43.4054 74.4688C44.0115 73.653 44.3145 72.5479 44.3145 71.1533C44.3145 69.7679 44.0115 68.6696 43.4054 67.8584C42.8038 67.0426 41.9903 66.6348 40.9649 66.6348C39.9441 66.6348 39.1306 67.0426 38.5245 67.8584C37.9229 68.6696 37.6222 69.7679 37.6222 71.1533ZM35.9542 71.1533C35.9542 69.6266 36.4122 68.403 37.3282 67.4824C38.2442 66.5618 39.4565 66.1016 40.9649 66.1016C42.4779 66.1016 43.6925 66.5618 44.6085 67.4824C45.5245 68.403 45.9825 69.6266 45.9825 71.1533C45.9825 72.6846 45.5245 73.9128 44.6085 74.8379C43.6925 75.763 42.4779 76.2256 40.9649 76.2256C39.4565 76.2256 38.2442 75.763 37.3282 74.8379C36.4122 73.9128 35.9542 72.6846 35.9542 71.1533ZM48.8418 76V75.7061C49.4525 75.7061 49.849 75.6149 50.0313 75.4326C50.2181 75.2503 50.3116 74.847 50.3116 74.2227V67.3047C50.3116 67.0996 50.2819 66.9766 50.2227 66.9355C50.1634 66.8945 49.9926 66.874 49.71 66.874H49.4707C48.5365 66.874 47.903 67.0085 47.5704 67.2773C47.2422 67.5417 47.0371 68.0498 46.9551 68.8018H46.6612L46.7432 66.3135H55.5205V68.8018H55.2129C55.1355 68.0407 54.9418 67.5303 54.6319 67.2705C54.3265 67.0062 53.6202 66.874 52.5127 66.874C52.1892 66.874 51.9978 66.8991 51.9385 66.9492C51.8838 66.9948 51.8565 67.1133 51.8565 67.3047V74.168C51.8565 74.8607 51.9522 75.2868 52.1436 75.4463C52.3396 75.6058 52.736 75.6924 53.333 75.7061L53.3399 76H48.8418ZM57.8467 76V75.7061C58.4574 75.7061 58.8538 75.6149 59.0361 75.4326C59.223 75.2503 59.3164 74.847 59.3164 74.2227V67.3047C59.3164 67.0996 59.2868 66.9766 59.2275 66.9355C59.1683 66.8945 58.9974 66.874 58.7148 66.874H58.4756C57.5413 66.874 56.9079 67.0085 56.5752 67.2773C56.2471 67.5417 56.042 68.0498 55.96 68.8018H55.666L55.748 66.3135H64.5254V68.8018H64.2178C64.1403 68.0407 63.9466 67.5303 63.6367 67.2705C63.3314 67.0062 62.625 66.874 61.5176 66.874C61.194 66.874 61.0026 66.8991 60.9434 66.9492C60.8887 66.9948 60.8613 67.1133 60.8613 67.3047V74.168C60.8613 74.8607 60.957 75.2868 61.1484 75.4463C61.3444 75.6058 61.7409 75.6924 62.3379 75.7061L62.3447 76H57.8467ZM64.7529 76L64.7597 75.7061C65.3294 75.6924 65.7076 75.6035 65.8945 75.4395C66.0859 75.2708 66.1816 74.9313 66.1816 74.4209V67.9062C66.1816 67.4049 66.0882 67.07 65.9013 66.9014C65.7145 66.7282 65.3317 66.6279 64.7529 66.6006V66.3135H73.038L73.1679 68.4531H72.874C72.7737 67.8379 72.5869 67.4209 72.3134 67.2021C72.0446 66.9834 71.5638 66.874 70.8711 66.874H68.4238C68.1276 66.874 67.9362 66.9105 67.8496 66.9834C67.763 67.0563 67.7197 67.2477 67.7197 67.5576V70.1621C67.7197 70.3626 67.7448 70.4902 67.7949 70.5449C67.845 70.5996 67.9749 70.627 68.1845 70.627H70.1123C70.8688 70.627 71.361 70.5335 71.5888 70.3467C71.8213 70.1553 71.9511 69.7952 71.9785 69.2666H72.2724V72.5957H71.9785C71.942 72.0397 71.8099 71.666 71.582 71.4746C71.3587 71.2786 70.8688 71.1807 70.1123 71.1807H68.1709C67.984 71.1807 67.861 71.208 67.8017 71.2627C67.747 71.3128 67.7197 71.4404 67.7197 71.6455V74.5439C67.7197 74.8994 67.7653 75.1318 67.8564 75.2412C67.9521 75.346 68.1367 75.3984 68.4101 75.3984H70.6728C71.5888 75.3984 72.2496 75.2686 72.6552 75.0088C73.0654 74.7445 73.4231 74.2386 73.7285 73.4912L73.9951 73.6211L73.2363 76H64.7529ZM77.4697 70.7227C77.4697 70.8548 77.4993 70.9482 77.5585 71.0029C77.6178 71.0576 77.7135 71.085 77.8456 71.085C79.0123 71.085 79.8577 70.9095 80.3818 70.5586C80.9058 70.2077 81.1679 69.6471 81.1679 68.877C81.1679 68.1706 80.9491 67.6533 80.5116 67.3252C80.0741 66.9971 79.3814 66.833 78.4335 66.833C78.0051 66.833 77.7363 66.8809 77.6269 66.9766C77.5221 67.0677 77.4697 67.2751 77.4697 67.5986V70.7227ZM74.5029 76V75.7061H74.6806C75.1682 75.7061 75.5055 75.6081 75.6923 75.4121C75.8792 75.2161 75.9726 74.8561 75.9726 74.332V67.8242C75.9726 67.3548 75.8746 67.0381 75.6786 66.874C75.4827 66.71 75.0907 66.6211 74.5029 66.6074V66.3135H79.4179C80.5071 66.3135 81.3388 66.5277 81.913 66.9561C82.4872 67.3844 82.7743 68.0042 82.7743 68.8154C82.7743 69.4489 82.5715 69.9753 82.1659 70.3945C81.7603 70.8138 81.1656 71.1146 80.3818 71.2969C81.6441 72.9193 82.5829 74.054 83.1982 74.7012C83.8134 75.3438 84.2646 75.6787 84.5517 75.7061V76H82.3573C81.7558 75.3529 81.1519 74.6624 80.5458 73.9287C79.9443 73.195 79.3381 72.4157 78.7275 71.5908H77.8456C77.7089 71.5908 77.6109 71.6182 77.5517 71.6729C77.497 71.723 77.4697 71.8118 77.4697 71.9395V74.332C77.4697 74.8561 77.5676 75.2161 77.7636 75.4121C77.9641 75.6081 78.3287 75.7061 78.8573 75.7061H78.9804V76H74.5029ZM86.2147 76V75.7061H86.2831C86.7798 75.7061 87.1285 75.6149 87.329 75.4326C87.5295 75.2503 87.6298 74.9359 87.6298 74.4893V71.8164L84.4511 67.3867C84.2597 67.127 84.0455 66.9355 83.8085 66.8125C83.5715 66.6895 83.2867 66.6211 82.954 66.6074V66.3135H87.4315V66.6006C87.0077 66.637 86.7115 66.6895 86.5429 66.7578C86.3788 66.8216 86.2968 66.915 86.2968 67.0381C86.2968 67.1794 86.3811 67.373 86.5497 67.6191C86.5634 67.6374 86.5725 67.6488 86.577 67.6533L88.8876 70.9619L90.8495 67.9473C91.0455 67.6556 91.1708 67.4551 91.2255 67.3457C91.2802 67.2318 91.3075 67.1383 91.3075 67.0654C91.3075 66.9333 91.2323 66.833 91.0819 66.7646C90.9361 66.6963 90.6626 66.6439 90.2616 66.6074V66.3135H93.2968V66.6074C93.0051 66.6257 92.7499 66.7122 92.5311 66.8672C92.3169 67.0176 92.0595 67.3184 91.7587 67.7695L89.1815 71.6592V74.5986C89.1815 75.0088 89.2818 75.2936 89.4823 75.4531C89.6828 75.6081 90.0634 75.6924 90.6239 75.7061V76H86.2147ZM26.7672 93.1982L26.234 90.0742H26.528C26.8652 90.9082 27.2913 91.5576 27.8063 92.0225C28.3213 92.4873 28.8704 92.7197 29.4538 92.7197C29.9687 92.7197 30.3994 92.5557 30.7457 92.2275C31.0967 91.8994 31.2721 91.4893 31.2721 90.9971C31.2721 90.637 31.1559 90.3021 30.9235 89.9922C30.6911 89.6777 30.331 89.3792 29.8434 89.0967L28.3327 88.1807C27.681 87.7979 27.2116 87.4059 26.9245 87.0049C26.6419 86.5993 26.5006 86.1344 26.5006 85.6104C26.5006 84.8721 26.7627 84.2705 27.2868 83.8057C27.8108 83.3363 28.4944 83.1016 29.3375 83.1016C29.7295 83.1016 30.1442 83.1745 30.5817 83.3203C31.0237 83.4661 31.2858 83.5391 31.3678 83.5391C31.4726 83.5391 31.5547 83.5026 31.6139 83.4297C31.6777 83.3568 31.7187 83.2474 31.737 83.1016H31.9899L32.3112 86.0273H32.0172C31.7392 85.2344 31.3792 84.6305 30.9371 84.2158C30.4951 83.8011 29.9915 83.5938 29.4264 83.5938C28.9479 83.5938 28.556 83.7305 28.2506 84.0039C27.9498 84.2728 27.7995 84.6214 27.7995 85.0498C27.7995 85.3825 27.9043 85.6855 28.1139 85.959C28.3235 86.2324 28.6813 86.5218 29.1871 86.8271L30.8688 87.8184C31.5569 88.2331 32.0377 88.641 32.3112 89.042C32.5892 89.443 32.7282 89.9215 32.7282 90.4775C32.7282 91.3115 32.4456 91.9792 31.8805 92.4805C31.32 92.9772 30.5657 93.2256 29.6178 93.2256C29.1758 93.2256 28.72 93.1618 28.2506 93.0342C27.7812 92.9066 27.5237 92.8428 27.4782 92.8428C27.346 92.8428 27.2412 92.8724 27.1637 92.9316C27.0862 92.9909 27.0361 93.0798 27.0133 93.1982H26.7672ZM33.4684 93L33.4752 92.7061C34.0449 92.6924 34.4231 92.6035 34.61 92.4395C34.8014 92.2708 34.8971 91.9313 34.8971 91.4209V84.9062C34.8971 84.4049 34.8036 84.07 34.6168 83.9014C34.4299 83.7282 34.0471 83.6279 33.4684 83.6006V83.3135H41.7535L41.8834 85.4531H41.5895C41.4892 84.8379 41.3023 84.4209 41.0289 84.2021C40.76 83.9834 40.2792 83.874 39.5865 83.874H37.1393C36.843 83.874 36.6516 83.9105 36.565 83.9834C36.4785 84.0563 36.4352 84.2477 36.4352 84.5576V87.1621C36.4352 87.3626 36.4602 87.4902 36.5104 87.5449C36.5605 87.5996 36.6904 87.627 36.9 87.627H38.8277C39.5842 87.627 40.0764 87.5335 40.3043 87.3467C40.5367 87.1553 40.6666 86.7952 40.6939 86.2666H40.9879V89.5957H40.6939C40.6575 89.0397 40.5253 88.666 40.2975 88.4746C40.0742 88.2786 39.5842 88.1807 38.8277 88.1807H36.8863C36.6995 88.1807 36.5764 88.208 36.5172 88.2627C36.4625 88.3128 36.4352 88.4404 36.4352 88.6455V91.5439C36.4352 91.8994 36.4807 92.1318 36.5719 92.2412C36.6676 92.346 36.8521 92.3984 37.1256 92.3984H39.3883C40.3043 92.3984 40.9651 92.2686 41.3707 92.0088C41.7809 91.7445 42.1386 91.2386 42.4439 90.4912L42.7105 90.6211L41.9518 93H33.4684ZM46.1851 87.7227C46.1851 87.8548 46.2147 87.9482 46.274 88.0029C46.3332 88.0576 46.4289 88.085 46.5611 88.085C47.7278 88.085 48.5731 87.9095 49.0972 87.5586C49.6213 87.2077 49.8834 86.6471 49.8834 85.877C49.8834 85.1706 49.6646 84.6533 49.2271 84.3252C48.7896 83.9971 48.0969 83.833 47.149 83.833C46.7206 83.833 46.4517 83.8809 46.3423 83.9766C46.2375 84.0677 46.1851 84.2751 46.1851 84.5986V87.7227ZM43.2183 93V92.7061H43.3961C43.8837 92.7061 44.2209 92.6081 44.4078 92.4121C44.5946 92.2161 44.688 91.8561 44.688 91.332V84.8242C44.688 84.3548 44.5901 84.0381 44.3941 83.874C44.1981 83.71 43.8062 83.6211 43.2183 83.6074V83.3135H48.1334C49.2226 83.3135 50.0543 83.5277 50.6285 83.9561C51.2027 84.3844 51.4898 85.0042 51.4898 85.8154C51.4898 86.4489 51.287 86.9753 50.8814 87.3945C50.4758 87.8138 49.8811 88.1146 49.0972 88.2969C50.3596 89.9193 51.2984 91.054 51.9136 91.7012C52.5289 92.3438 52.98 92.6787 53.2672 92.7061V93H51.0728C50.4713 92.3529 49.8674 91.6624 49.2613 90.9287C48.6597 90.195 48.0536 89.4157 47.4429 88.5908H46.5611C46.4244 88.5908 46.3264 88.6182 46.2672 88.6729C46.2125 88.723 46.1851 88.8118 46.1851 88.9395V91.332C46.1851 91.8561 46.2831 92.2161 46.4791 92.4121C46.6796 92.6081 47.0442 92.7061 47.5728 92.7061H47.6959V93H43.2183ZM57.0767 93.2256L53.6177 85.3438C53.3215 84.6647 53.0526 84.2067 52.8111 83.9697C52.5741 83.7327 52.2847 83.612 51.9429 83.6074V83.3135H56.0445L56.0376 83.6074C55.5637 83.6393 55.2515 83.694 55.1011 83.7715C54.9553 83.849 54.8823 83.9811 54.8823 84.168C54.8823 84.3594 55.0874 84.945 55.4976 85.9248C55.9123 86.9046 56.6437 88.5293 57.6919 90.7988L60.2554 85.1182C60.3465 84.9131 60.4149 84.7354 60.4605 84.585C60.5106 84.4346 60.5357 84.3138 60.5357 84.2227C60.5357 84.013 60.4582 83.8649 60.3032 83.7783C60.1483 83.6872 59.8589 83.6302 59.4351 83.6074L59.4282 83.3135H62.354V83.6074C62.0897 83.6257 61.8664 83.7282 61.6841 83.915C61.5018 84.1019 61.2831 84.4847 61.0279 85.0635L57.3843 93.2256H57.0767ZM62.7182 93V92.7061C63.2833 92.6924 63.6616 92.6012 63.853 92.4326C64.0444 92.2594 64.1401 91.9176 64.1401 91.4072V84.9062C64.1401 84.4095 64.0421 84.0723 63.8462 83.8945C63.6502 83.7168 63.2742 83.6211 62.7182 83.6074V83.3135H67.1274L67.1206 83.6074C66.5464 83.6302 66.1658 83.7282 65.979 83.9014C65.7921 84.0745 65.6987 84.4095 65.6987 84.9062V91.4072C65.6987 91.9085 65.7944 92.248 65.9858 92.4258C66.1818 92.599 66.56 92.6924 67.1206 92.7061L67.1274 93H62.7182ZM76.9526 90.7578L77.1918 91.0107C76.6541 91.7581 76.0457 92.3141 75.3666 92.6787C74.6922 93.0433 73.9288 93.2256 73.0766 93.2256C71.5499 93.2256 70.324 92.7699 69.3989 91.8584C68.4783 90.9424 68.018 89.7324 68.018 88.2285C68.018 86.7292 68.4988 85.501 69.4604 84.5439C70.422 83.5824 71.6547 83.1016 73.1586 83.1016C73.7328 83.1016 74.3253 83.195 74.936 83.3818C75.5512 83.5687 75.8953 83.6621 75.9682 83.6621C76.1049 83.6621 76.2166 83.6165 76.3032 83.5254C76.3898 83.4342 76.433 83.3158 76.433 83.1699H76.6996L76.9799 86.3076H76.686C76.4125 85.4281 75.9978 84.7604 75.4418 84.3047C74.8858 83.849 74.2091 83.6211 73.4116 83.6211C72.295 83.6211 71.395 84.0358 70.7114 84.8652C70.0278 85.6947 69.686 86.7907 69.686 88.1533C69.686 89.4613 70.0255 90.5345 70.7045 91.373C71.3881 92.207 72.2608 92.624 73.3227 92.624C74.0564 92.624 74.7081 92.4782 75.2778 92.1865C75.852 91.8903 76.4103 91.4141 76.9526 90.7578ZM77.3852 93L77.392 92.7061C77.9617 92.6924 78.3399 92.6035 78.5268 92.4395C78.7182 92.2708 78.8139 91.9313 78.8139 91.4209V84.9062C78.8139 84.4049 78.7204 84.07 78.5336 83.9014C78.3468 83.7282 77.9639 83.6279 77.3852 83.6006V83.3135H85.6703L85.8002 85.4531H85.5063C85.406 84.8379 85.2191 84.4209 84.9457 84.2021C84.6768 83.9834 84.196 83.874 83.5033 83.874H81.0561C80.7598 83.874 80.5684 83.9105 80.4818 83.9834C80.3953 84.0563 80.352 84.2477 80.352 84.5576V87.1621C80.352 87.3626 80.377 87.4902 80.4272 87.5449C80.4773 87.5996 80.6072 87.627 80.8168 87.627H82.7445C83.501 87.627 83.9932 87.5335 84.2211 87.3467C84.4535 87.1553 84.5834 86.7952 84.6107 86.2666H84.9047V89.5957H84.6107C84.5743 89.0397 84.4421 88.666 84.2143 88.4746C83.991 88.2786 83.501 88.1807 82.7445 88.1807H80.8031C80.6163 88.1807 80.4932 88.208 80.434 88.2627C80.3793 88.3128 80.352 88.4404 80.352 88.6455V91.5439C80.352 91.8994 80.3975 92.1318 80.4887 92.2412C80.5844 92.346 80.769 92.3984 81.0424 92.3984H83.3051C84.2211 92.3984 84.8819 92.2686 85.2875 92.0088C85.6977 91.7445 86.0554 91.2386 86.3607 90.4912L86.6273 90.6211L85.8686 93H77.3852ZM87.682 93.1982L87.1488 90.0742H87.4427C87.78 90.9082 88.2061 91.5576 88.7211 92.0225C89.236 92.4873 89.7852 92.7197 90.3685 92.7197C90.8835 92.7197 91.3142 92.5557 91.6605 92.2275C92.0114 91.8994 92.1869 91.4893 92.1869 90.9971C92.1869 90.637 92.0707 90.3021 91.8382 89.9922C91.6058 89.6777 91.2458 89.3792 90.7582 89.0967L89.2474 88.1807C88.5957 87.7979 88.1263 87.4059 87.8392 87.0049C87.5567 86.5993 87.4154 86.1344 87.4154 85.6104C87.4154 84.8721 87.6774 84.2705 88.2015 83.8057C88.7256 83.3363 89.4092 83.1016 90.2523 83.1016C90.6442 83.1016 91.0589 83.1745 91.4964 83.3203C91.9385 83.4661 92.2005 83.5391 92.2826 83.5391C92.3874 83.5391 92.4694 83.5026 92.5287 83.4297C92.5925 83.3568 92.6335 83.2474 92.6517 83.1016H92.9046L93.2259 86.0273H92.932C92.654 85.2344 92.294 84.6305 91.8519 84.2158C91.4099 83.8011 90.9063 83.5938 90.3412 83.5938C89.8627 83.5938 89.4707 83.7305 89.1654 84.0039C88.8646 84.2728 88.7142 84.6214 88.7142 85.0498C88.7142 85.3825 88.819 85.6855 89.0287 85.959C89.2383 86.2324 89.5961 86.5218 90.1019 86.8271L91.7836 87.8184C92.4717 88.2331 92.9525 88.641 93.2259 89.042C93.5039 89.443 93.6429 89.9215 93.6429 90.4775C93.6429 91.3115 93.3604 91.9792 92.7953 92.4805C92.2347 92.9772 91.4805 93.2256 90.5326 93.2256C90.0905 93.2256 89.6348 93.1618 89.1654 93.0342C88.696 92.9066 88.4385 92.8428 88.3929 92.8428C88.2608 92.8428 88.1559 92.8724 88.0785 92.9316C88.001 92.9909 87.9509 93.0798 87.9281 93.1982H87.682Z" fill="black"/>
</svg>
