<svg width="100" height="100" viewBox="0 0 100 100" fill="none" xmlns="http://www.w3.org/2000/svg">
<circle cx="50" cy="50" r="50" fill="white"/>
<path d="M15.4809 34.242C16.5449 34.242 17.4643 34.4427 18.2389 34.844C19.0229 35.236 19.6203 35.8007 20.0309 36.538C20.4509 37.2753 20.6609 38.1433 20.6609 39.142C20.6609 40.1407 20.4509 41.0087 20.0309 41.746C19.6203 42.474 19.0229 43.034 18.2389 43.426C17.4643 43.8087 16.5449 44 15.4809 44H12.4429V34.242H15.4809ZM15.4809 42.95C16.7409 42.95 17.7023 42.6187 18.3649 41.956C19.0276 41.284 19.3589 40.346 19.3589 39.142C19.3589 37.9287 19.0229 36.9813 18.3509 36.3C17.6883 35.6187 16.7316 35.278 15.4809 35.278H13.7169V42.95H15.4809ZM30.1954 34.242L26.5134 44H25.0434L21.3614 34.242H22.7194L25.7854 42.656L28.8514 34.242H30.1954ZM36.1787 42.964H39.5947V44H34.9047V34.242H36.1787V42.964ZM45.1617 44.098C44.2564 44.098 43.4304 43.888 42.6837 43.468C41.937 43.0387 41.3444 42.446 40.9057 41.69C40.4764 40.9247 40.2617 40.066 40.2617 39.114C40.2617 38.162 40.4764 37.308 40.9057 36.552C41.3444 35.7867 41.937 35.194 42.6837 34.774C43.4304 34.3447 44.2564 34.13 45.1617 34.13C46.0764 34.13 46.907 34.3447 47.6537 34.774C48.4004 35.194 48.9884 35.782 49.4177 36.538C49.847 37.294 50.0617 38.1527 50.0617 39.114C50.0617 40.0753 49.847 40.934 49.4177 41.69C48.9884 42.446 48.4004 43.0387 47.6537 43.468C46.907 43.888 46.0764 44.098 45.1617 44.098ZM45.1617 42.992C45.843 42.992 46.4544 42.8333 46.9957 42.516C47.5464 42.1987 47.9757 41.746 48.2837 41.158C48.601 40.57 48.7597 39.8887 48.7597 39.114C48.7597 38.33 48.601 37.6487 48.2837 37.07C47.9757 36.482 47.551 36.0293 47.0097 35.712C46.4684 35.3947 45.8524 35.236 45.1617 35.236C44.471 35.236 43.855 35.3947 43.3137 35.712C42.7724 36.0293 42.343 36.482 42.0257 37.07C41.7177 37.6487 41.5637 38.33 41.5637 39.114C41.5637 39.8887 41.7177 40.57 42.0257 41.158C42.343 41.746 42.7724 42.1987 43.3137 42.516C43.8644 42.8333 44.4804 42.992 45.1617 42.992ZM57.5395 34.242V35.278H54.8795V44H53.6055V35.278H50.9315V34.242H57.5395ZM64.9038 34.242V35.278H62.2438V44H60.9698V35.278H58.2958V34.242H64.9038ZM67.536 35.278V38.54H71.092V39.59H67.536V42.95H71.512V44H66.262V34.228H71.512V35.278H67.536ZM78.3677 44L76.0437 40.01H74.5037V44H73.2297V34.242H76.3797C77.1171 34.242 77.7377 34.368 78.2417 34.62C78.7551 34.872 79.1377 35.2127 79.3897 35.642C79.6417 36.0713 79.7677 36.5613 79.7677 37.112C79.7677 37.784 79.5717 38.3767 79.1797 38.89C78.7971 39.4033 78.2184 39.744 77.4437 39.912L79.8937 44H78.3677ZM74.5037 38.988H76.3797C77.0704 38.988 77.5884 38.82 77.9337 38.484C78.2791 38.1387 78.4517 37.6813 78.4517 37.112C78.4517 36.5333 78.2791 36.0853 77.9337 35.768C77.5977 35.4507 77.0797 35.292 76.3797 35.292H74.5037V38.988ZM88.3693 34.242L85.1913 40.318V44H83.9173V40.318L80.7253 34.242H82.1393L84.5473 39.184L86.9553 34.242H88.3693ZM23.3933 65.098C22.7493 65.098 22.1707 64.986 21.6573 64.762C21.1533 64.5287 20.7567 64.2113 20.4673 63.81C20.178 63.3993 20.0287 62.928 20.0193 62.396H21.3773C21.424 62.8533 21.6107 63.2407 21.9373 63.558C22.2733 63.866 22.7587 64.02 23.3933 64.02C24 64.02 24.476 63.8707 24.8213 63.572C25.176 63.264 25.3533 62.872 25.3533 62.396C25.3533 62.0227 25.2507 61.7193 25.0453 61.486C24.84 61.2527 24.5833 61.0753 24.2753 60.954C23.9673 60.8327 23.552 60.702 23.0293 60.562C22.3853 60.394 21.8673 60.226 21.4753 60.058C21.0927 59.89 20.7613 59.6287 20.4813 59.274C20.2107 58.91 20.0753 58.4247 20.0753 57.818C20.0753 57.286 20.2107 56.8147 20.4813 56.404C20.752 55.9933 21.13 55.676 21.6153 55.452C22.11 55.228 22.6747 55.116 23.3093 55.116C24.224 55.116 24.9707 55.3447 25.5493 55.802C26.1373 56.2593 26.4687 56.866 26.5433 57.622H25.1433C25.0967 57.2487 24.9007 56.922 24.5553 56.642C24.21 56.3527 23.7527 56.208 23.1833 56.208C22.6513 56.208 22.2173 56.348 21.8813 56.628C21.5453 56.8987 21.3773 57.2813 21.3773 57.776C21.3773 58.1307 21.4753 58.42 21.6713 58.644C21.8767 58.868 22.124 59.0407 22.4133 59.162C22.712 59.274 23.1273 59.4047 23.6593 59.554C24.3033 59.7313 24.8213 59.9087 25.2133 60.086C25.6053 60.254 25.9413 60.52 26.2213 60.884C26.5013 61.2387 26.6413 61.724 26.6413 62.34C26.6413 62.816 26.5153 63.264 26.2633 63.684C26.0113 64.104 25.638 64.4447 25.1433 64.706C24.6487 64.9673 24.0653 65.098 23.3933 65.098ZM29.5801 56.278V59.54H33.1361V60.59H29.5801V63.95H33.5561V65H28.3061V55.228H33.5561V56.278H29.5801ZM40.4119 65L38.0879 61.01H36.5479V65H35.2739V55.242H38.4239C39.1612 55.242 39.7819 55.368 40.2859 55.62C40.7992 55.872 41.1819 56.2127 41.4339 56.642C41.6859 57.0713 41.8119 57.5613 41.8119 58.112C41.8119 58.784 41.6159 59.3767 41.2239 59.89C40.8412 60.4033 40.2625 60.744 39.4879 60.912L41.9379 65H40.4119ZM36.5479 59.988H38.4239C39.1145 59.988 39.6325 59.82 39.9779 59.484C40.3232 59.1387 40.4959 58.6813 40.4959 58.112C40.4959 57.5333 40.3232 57.0853 39.9779 56.768C39.6419 56.4507 39.1239 56.292 38.4239 56.292H36.5479V59.988ZM51.6454 55.242L47.9634 65H46.4934L42.8114 55.242H44.1694L47.2354 63.656L50.3014 55.242H51.6454ZM54.1064 55.242V65H52.8324V55.242H54.1064ZM55.5917 60.114C55.5917 59.162 55.8064 58.308 56.2357 57.552C56.665 56.7867 57.2484 56.1893 57.9857 55.76C58.7324 55.3307 59.5584 55.116 60.4637 55.116C61.5277 55.116 62.4564 55.3727 63.2497 55.886C64.043 56.3993 64.6217 57.1273 64.9857 58.07H63.4597C63.189 57.482 62.797 57.0293 62.2837 56.712C61.7797 56.3947 61.173 56.236 60.4637 56.236C59.7824 56.236 59.171 56.3947 58.6297 56.712C58.0884 57.0293 57.6637 57.482 57.3557 58.07C57.0477 58.6487 56.8937 59.33 56.8937 60.114C56.8937 60.8887 57.0477 61.57 57.3557 62.158C57.6637 62.7367 58.0884 63.1847 58.6297 63.502C59.171 63.8193 59.7824 63.978 60.4637 63.978C61.173 63.978 61.7797 63.824 62.2837 63.516C62.797 63.1987 63.189 62.746 63.4597 62.158H64.9857C64.6217 63.0913 64.043 63.8147 63.2497 64.328C62.4564 64.832 61.5277 65.084 60.4637 65.084C59.5584 65.084 58.7324 64.874 57.9857 64.454C57.2484 64.0247 56.665 63.432 56.2357 62.676C55.8064 61.92 55.5917 61.066 55.5917 60.114ZM67.9461 56.278V59.54H71.5021V60.59H67.9461V63.95H71.9221V65H66.6721V55.228H71.9221V56.278H67.9461ZM76.7339 65.098C76.0899 65.098 75.5112 64.986 74.9979 64.762C74.4939 64.5287 74.0972 64.2113 73.8079 63.81C73.5185 63.3993 73.3692 62.928 73.3599 62.396H74.7179C74.7645 62.8533 74.9512 63.2407 75.2779 63.558C75.6139 63.866 76.0992 64.02 76.7339 64.02C77.3405 64.02 77.8165 63.8707 78.1619 63.572C78.5165 63.264 78.6939 62.872 78.6939 62.396C78.6939 62.0227 78.5912 61.7193 78.3859 61.486C78.1805 61.2527 77.9239 61.0753 77.6159 60.954C77.3079 60.8327 76.8925 60.702 76.3699 60.562C75.7259 60.394 75.2079 60.226 74.8159 60.058C74.4332 59.89 74.1019 59.6287 73.8219 59.274C73.5512 58.91 73.4159 58.4247 73.4159 57.818C73.4159 57.286 73.5512 56.8147 73.8219 56.404C74.0925 55.9933 74.4705 55.676 74.9559 55.452C75.4505 55.228 76.0152 55.116 76.6499 55.116C77.5645 55.116 78.3112 55.3447 78.8899 55.802C79.4779 56.2593 79.8092 56.866 79.8839 57.622H78.4839C78.4372 57.2487 78.2412 56.922 77.8959 56.642C77.5505 56.3527 77.0932 56.208 76.5239 56.208C75.9919 56.208 75.5579 56.348 75.2219 56.628C74.8859 56.8987 74.7179 57.2813 74.7179 57.776C74.7179 58.1307 74.8159 58.42 75.0119 58.644C75.2172 58.868 75.4645 59.0407 75.7539 59.162C76.0525 59.274 76.4679 59.4047 76.9999 59.554C77.6439 59.7313 78.1619 59.9087 78.5539 60.086C78.9459 60.254 79.2819 60.52 79.5619 60.884C79.8419 61.2387 79.9819 61.724 79.9819 62.34C79.9819 62.816 79.8559 63.264 79.6039 63.684C79.3519 64.104 78.9785 64.4447 78.4839 64.706C77.9892 64.9673 77.4059 65.098 76.7339 65.098Z" fill="black"/>
</svg>
