<svg width="25" height="25" viewBox="0 0 25 25" fill="none" xmlns="http://www.w3.org/2000/svg">
<path d="M6 0C5.45312 0 5 0.453125 5 1V2H2C1.73828 2 1.47266 2.0957 1.28516 2.28516C1.0957 2.47266 1 2.73828 1 3V23C1 23.2617 1.0957 23.5273 1.28516 23.7168C1.47266 23.9043 1.73828 24 2 24H23C23.2617 24 23.5273 23.9043 23.7168 23.7168C23.9043 23.5273 24 23.2617 24 23V3C24 2.73828 23.9043 2.47266 23.7168 2.28516C23.5273 2.0957 23.2617 2 23 2H20V1C20 0.453125 19.5469 0 19 0H18C17.4531 0 17 0.453125 17 1V2H8V1C8 0.453125 7.54688 0 7 0H6ZM6 1H7V4H6V1ZM18 1H19V4H18V1ZM2 3H5V4C5 4.54688 5.45312 5 6 5H7C7.54688 5 8 4.54688 8 4V3H17V4C17 4.54688 17.4531 5 18 5H19C19.5469 5 20 4.54688 20 4V3H23V6.5H2V3ZM2 7.5H23V23H2V7.5ZM5 9.5V21H20V9.5H5ZM6 10.5H8.5V13H6V10.5ZM9.5 10.5H12V13H9.5V10.5ZM13 10.5H15.5V13H13V10.5ZM16.5 10.5H19V13H16.5V10.5ZM6 14H8.5V16.5H6V14ZM9.5 14H12V16.5H9.5V14ZM13 14H15.5V16.5H13V14ZM16.5 14H19V16.5H16.5V14ZM6 17.5H8.5V20H6V17.5ZM9.5 17.5H12V20H9.5V17.5ZM13 17.5H15.5V20H13V17.5ZM16.5 17.5H19V20H16.5V17.5Z" fill="black"/>
</svg>
